<?xml version="1.0" encoding="iso-8859-1"?>
<!-- Generator: Adobe Illustrator 19.0.0, SVG Export Plug-In . SVG Version: 6.00 Build 0)  -->
<svg version="1.1" id="Layer_1" xmlns="http://www.w3.org/2000/svg" xmlns:xlink="http://www.w3.org/1999/xlink" x="0px" y="0px"
	 viewBox="0 0 512.001 512.001" style="enable-background:new 0 0 512.001 512.001;" xml:space="preserve">
<g>
	<g>
		<path fill="#0c1c8d" d="M405.334,0H106.667C77.248,0,53.334,23.936,53.334,53.333v448c0,3.776,2.005,7.275,5.248,9.195
			c3.264,1.92,7.275,1.963,10.603,0.128L256,406.869l186.816,103.787c1.621,0.896,3.392,1.344,5.184,1.344
			c1.877,0,3.755-0.491,5.419-1.472c3.243-1.92,5.248-5.419,5.248-9.195v-448C458.667,23.936,434.752,0,405.334,0z M412.886,188.885
			l-70.635,70.635l19.648,98.24c0.768,1.472,1.195,3.136,1.195,4.907c0,5.888-4.779,10.667-10.667,10.667
			c-0.107,0-0.256,0.021-0.427,0c-1.771,0-3.563-0.448-5.184-1.344L256,321.536l-90.816,50.453
			c-3.648,2.005-8.085,1.749-11.477-0.704c-3.349-2.453-4.971-6.635-4.16-10.709L169.75,259.52l-70.635-70.635
			c-2.901-2.901-3.883-7.211-2.517-11.072c1.365-3.861,4.821-6.613,8.875-7.083l90.539-10.048l50.645-91.179
			c3.797-6.763,14.869-6.763,18.667,0l50.645,91.179l90.539,10.048c4.053,0.448,7.531,3.2,8.875,7.083
			C416.726,181.696,415.766,185.984,412.886,188.885z"/>
	</g>
</g>
<g>
</g>
<g>
</g>
<g>
</g>
<g>
</g>
<g>
</g>
<g>
</g>
<g>
</g>
<g>
</g>
<g>
</g>
<g>
</g>
<g>
</g>
<g>
</g>
<g>
</g>
<g>
</g>
<g>
</g>
</svg>
